<svg width="30" height="30" viewBox="0 0 30 30" fill="none" xmlns="http://www.w3.org/2000/svg">
<path d="M1.64891 15.2709L6.10136 18.5227L4.41043 23.7593C4.13717 24.5715 4.13371 25.4503 4.40056 26.2646C4.66741 27.0789 5.19029 27.7851 5.89124 28.2781C6.58019 28.7868 7.41507 29.0594 8.27149 29.0551C9.12792 29.0508 9.96003 28.7699 10.6439 28.2543L14.9975 25.05L19.3524 28.2505C20.0401 28.7564 20.8705 29.0311 21.7242 29.0353C22.5778 29.0395 23.4109 28.7728 24.1035 28.2737C24.7961 27.7746 25.3125 27.0687 25.5787 26.2575C25.8448 25.4464 25.8469 24.5717 25.5846 23.7593L23.8936 18.5227L28.3461 15.2709C29.0329 14.7688 29.5434 14.0624 29.8048 13.2528C30.0662 12.4431 30.065 11.5716 29.8015 10.7627C29.5379 9.95372 29.0255 9.24876 28.3374 8.74846C27.6492 8.24816 26.8206 7.97811 25.9698 7.9769H20.5005L18.8409 2.80406C18.5799 1.98981 18.067 1.27949 17.3763 0.775524C16.6855 0.271561 15.8526 0 14.9975 0C14.1424 0 13.3095 0.271561 12.6187 0.775524C11.928 1.27949 11.4151 1.98981 11.1541 2.80406L9.49447 7.9769H4.03022C3.17943 7.97811 2.35079 8.24816 1.66264 8.74846C0.9745 9.24876 0.46206 9.95372 0.198516 10.7627C-0.0650284 11.5716 -0.0661948 12.4431 0.195183 13.2528C0.456561 14.0624 0.967112 14.7688 1.65391 15.2709H1.64891Z" fill="#FF6B00"/>
</svg>
